<?xml version="1.0" encoding="UTF-8" standalone="no"?>
<svg
   height="1024"
   width="1024"
   version="1.1"
   id="svg6"
   sodipodi:docname="letters.svg"
   inkscape:version="1.4 (86a8ad7, 2024-10-11)"
   xmlns:inkscape="http://www.inkscape.org/namespaces/inkscape"
   xmlns:sodipodi="http://sodipodi.sourceforge.net/DTD/sodipodi-0.dtd"
   xmlns="http://www.w3.org/2000/svg"
   xmlns:svg="http://www.w3.org/2000/svg">
  <defs
     id="defs6" />
  <sodipodi:namedview
     id="namedview6"
     pagecolor="#505050"
     bordercolor="#eeeeee"
     borderopacity="1"
     inkscape:showpageshadow="0"
     inkscape:pageopacity="0"
     inkscape:pagecheckerboard="0"
     inkscape:deskcolor="#505050"
     inkscape:zoom="0.35839844"
     inkscape:cx="518.97548"
     inkscape:cy="432.47956"
     inkscape:window-width="1280"
     inkscape:window-height="961"
     inkscape:window-x="-8"
     inkscape:window-y="-8"
     inkscape:window-maximized="1"
     inkscape:current-layer="g7"
     showguides="false" />
  <g
     id="g7"
     transform="matrix(1.4282747,0,0,1.4282747,-200.14055,-125.00224)">
    <g
       id="text7"
       style="font-size:313.813px;line-height:0.8;font-family:'Black boys on mopeds';-inkscape-font-specification:'Black boys on mopeds';text-align:center;text-anchor:middle;stroke:#ffffff;stroke-width:120;stroke-linejoin:round;paint-order:stroke markers fill"
       aria-label="W&#10;    A"
       transform="matrix(1.1547836,0,0,1.1547836,-40.647285,-77.791469)">
      <path
         d="m 479.71276,234.17043 q 0,11.61108 -16.63208,10.66964 -2.51051,0 -8.47295,-1.88287 -5.96245,-1.88288 -9.72821,-1.56907 0,5.64863 -0.31381,16.9459 -0.31381,7.2177 -4.39338,36.71612 l -5.33482,37.65756 q -4.7072,34.20562 -14.12159,83.47426 -1.88288,9.41438 -2.5105,11.29726 -2.19669,5.33482 -8.15914,8.15914 l -7.53151,-0.62763 q -8.47295,-1.25525 -11.61108,-14.43539 -0.94144,-4.39338 -3.13813,-13.18015 -3.13813,-10.98345 -12.55252,-45.50288 l -16.31828,-63.07641 q -0.94143,5.02101 -10.04201,74.05986 -1.25525,9.72821 -5.33482,37.65756 -1.88288,11.61108 -8.78677,15.37684 -5.96244,1.25525 -17.25971,3.45194 -2.5105,-0.94144 -5.96245,-4.39338 -11.92489,-38.28519 -26.04648,-95.71296 -1.25525,-6.59008 -5.96244,-25.41885 -3.13813,-9.72821 -11.9249,-37.65756 -0.62762,-3.76576 -3.76575,-10.35583 -9.41439,1.56906 -12.55252,1.56906 -9.7282,0 -15.06302,-5.64863 -2.1967,-2.19669 -2.1967,-5.64863 0,-3.45195 2.82432,-7.53152 2.82432,-4.07956 6.27626,-4.70719 8.15914,-2.82432 35.14706,-2.82432 9.10057,-1.56906 20.39784,-2.5105 20.71166,-1.88288 20.71166,10.35583 0,9.7282 -23.53598,10.66964 -1.88287,0.31381 -5.64863,1.25525 -2.5105,1.56907 -2.19669,6.90389 0.31381,5.64863 5.64863,20.39784 1.88288,7.84533 10.35583,43.30619 l 3.76576,15.37684 q 0.31381,0.62763 15.06302,53.03439 0,0.31382 0.94144,1.25526 4.70719,-18.20116 8.15914,-44.56145 l 5.021,-38.28518 q 0.31382,-4.7072 1.88288,-17.57353 0.94144,-5.64863 3.13813,-21.6531 0,-9.7282 2.19669,-28.87079 1.25526,-5.64863 8.47295,-6.90389 4.7072,-0.31381 9.41439,1.56907 5.02101,1.88288 5.02101,5.96244 0,13.80778 3.76576,26.98792 2.5105,8.47295 7.53151,25.73267 8.78676,35.46086 23.53597,91.9472 0.31382,1.88288 1.88288,3.45195 4.39338,-16.63209 6.27626,-27.92936 5.64863,-32.95036 14.74921,-103.24447 0.31381,-0.62763 -0.31381,-16.94591 -0.62763,-0.94143 -1.56907,-1.25525 -10.35582,-1.88288 -16.31827,-3.45194 -12.23871,-3.13813 -12.23871,-7.53151 0,-1.25525 0.94144,-2.82432 3.13813,-6.90388 12.23871,-6.90388 2.19669,0 10.04201,1.25525 6.90389,1.25525 9.41439,0.62762 0.94144,0 31.06749,1.88288 10.04201,0.62763 13.80777,1.88288 7.84532,2.5105 7.84532,9.7282 z"
         id="path4"
         style="font-size:313.813px;line-height:0.8;font-family:'Black boys on mopeds';-inkscape-font-specification:'Black boys on mopeds';text-align:center;text-anchor:middle;stroke:#ffffff;stroke-width:120;stroke-linejoin:round;paint-order:stroke markers fill" />
      <path
         d="m 479.71276,234.17043 q 0,11.61108 -16.63208,10.66964 -2.51051,0 -8.47295,-1.88287 -5.96245,-1.88288 -9.72821,-1.56907 0,5.64863 -0.31381,16.9459 -0.31381,7.2177 -4.39338,36.71612 l -5.33482,37.65756 q -4.7072,34.20562 -14.12159,83.47426 -1.88288,9.41438 -2.5105,11.29726 -2.19669,5.33482 -8.15914,8.15914 l -7.53151,-0.62763 q -8.47295,-1.25525 -11.61108,-14.43539 -0.94144,-4.39338 -3.13813,-13.18015 -3.13813,-10.98345 -12.55252,-45.50288 l -16.31828,-63.07641 q -0.94143,5.02101 -10.04201,74.05986 -1.25525,9.72821 -5.33482,37.65756 -1.88288,11.61108 -8.78677,15.37684 -5.96244,1.25525 -17.25971,3.45194 -2.5105,-0.94144 -5.96245,-4.39338 -11.92489,-38.28519 -26.04648,-95.71296 -1.25525,-6.59008 -5.96244,-25.41885 -3.13813,-9.72821 -11.9249,-37.65756 -0.62762,-3.76576 -3.76575,-10.35583 -9.41439,1.56906 -12.55252,1.56906 -9.7282,0 -15.06302,-5.64863 -2.1967,-2.19669 -2.1967,-5.64863 0,-3.45195 2.82432,-7.53152 2.82432,-4.07956 6.27626,-4.70719 8.15914,-2.82432 35.14706,-2.82432 9.10057,-1.56906 20.39784,-2.5105 20.71166,-1.88288 20.71166,10.35583 0,9.7282 -23.53598,10.66964 -1.88287,0.31381 -5.64863,1.25525 -2.5105,1.56907 -2.19669,6.90389 0.31381,5.64863 5.64863,20.39784 1.88288,7.84533 10.35583,43.30619 l 3.76576,15.37684 q 0.31381,0.62763 15.06302,53.03439 0,0.31382 0.94144,1.25526 4.70719,-18.20116 8.15914,-44.56145 l 5.021,-38.28518 q 0.31382,-4.7072 1.88288,-17.57353 0.94144,-5.64863 3.13813,-21.6531 0,-9.7282 2.19669,-28.87079 1.25526,-5.64863 8.47295,-6.90389 4.7072,-0.31381 9.41439,1.56907 5.02101,1.88288 5.02101,5.96244 0,13.80778 3.76576,26.98792 2.5105,8.47295 7.53151,25.73267 8.78676,35.46086 23.53597,91.9472 0.31382,1.88288 1.88288,3.45195 4.39338,-16.63209 6.27626,-27.92936 5.64863,-32.95036 14.74921,-103.24447 0.31381,-0.62763 -0.31381,-16.94591 -0.62763,-0.94143 -1.56907,-1.25525 -10.35582,-1.88288 -16.31827,-3.45194 -12.23871,-3.13813 -12.23871,-7.53151 0,-1.25525 0.94144,-2.82432 3.13813,-6.90388 12.23871,-6.90388 2.19669,0 10.04201,1.25525 6.90389,1.25525 9.41439,0.62762 0.94144,0 31.06749,1.88288 10.04201,0.62763 13.80777,1.88288 7.84532,2.5105 7.84532,9.7282 z"
         id="path6"
         style="font-size:313.813px;line-height:0.8;font-family:'Black boys on mopeds';-inkscape-font-specification:'Black boys on mopeds';text-align:center;text-anchor:middle;fill:#ffffff;stroke:#654ef0;stroke-width:55;stroke-linejoin:round;paint-order:stroke markers fill" />
    </g>
    <g
       id="text5"
       style="font-size:313.813px;line-height:0.8;font-family:'Black boys on mopeds';-inkscape-font-specification:'Black boys on mopeds';text-align:center;text-anchor:middle;fill:#ffffff;stroke:#654ef0;stroke-width:55;stroke-linejoin:round;paint-order:stroke markers fill"
       aria-label="W&#10;    A"
       transform="matrix(1.1561963,0,0,1.1561963,-112.2814,-61.635711)">
      <path
         d="m 749.74872,646.83452 q -21.96691,9.10057 -40.79569,23.53597 -3.45194,2.5105 -12.2387,2.82432 -2.82432,0 -5.33482,-2.19669 -2.51051,-2.1967 -2.51051,-5.02101 0,-4.07957 8.47295,-9.7282 3.45195,-2.1967 11.9249,-7.84533 0.31381,-1.56906 -10.35583,-37.02993 -16.63209,-0.31382 -54.28965,11.29727 -2.19669,0.62762 -3.45194,8.78676 -0.62763,0.94144 -1.25525,2.82432 0,0.94143 3.76575,2.82431 4.07957,1.88288 4.7072,2.82432 0.62762,0.94144 0.62762,2.82432 0,4.39338 -3.45194,7.53151 -3.45194,2.82432 -7.84533,2.82432 -1.25525,-0.31382 -11.29726,-1.56907 -5.02101,-0.62763 -28.55699,-2.5105 -19.4564,-1.56907 -19.4564,-8.78677 0,-7.53151 7.53151,-8.78676 4.07957,-0.62763 11.29727,0.62763 1.56906,0.62762 24.79122,2.19669 1.88288,-15.69065 6.27626,-36.71612 5.64864,-26.04648 20.39785,-97.90966 -3.13813,-0.62762 -6.59007,-0.62762 -5.96245,0 -17.57353,3.45194 -11.61108,3.45194 -17.57353,3.45194 -2.19669,0 -6.27626,-3.45194 -0.31381,-1.25525 -0.31381,-2.19669 0,-6.59007 8.78676,-8.15914 24.79123,-4.70719 43.93382,-5.96244 l 9.41439,-0.62763 q 7.84533,0.94144 12.55252,18.51497 1.88288,6.59007 7.84532,22.28072 3.76576,9.7282 13.18015,32.95036 l 14.12158,32.32274 q 4.07957,10.04202 17.88735,45.8167 4.07956,-0.62763 13.49395,-5.33482 9.41439,-4.7072 12.86634,-4.7072 3.76575,0 7.21769,2.82432 0.94144,0.94144 1.56907,4.70719 0.31381,5.64864 -4.07957,8.15914 -1.56906,0.62763 -9.41439,3.76576 z m -57.11396,-51.77915 q -4.39338,-8.78676 -13.49396,-31.3813 -1.56907,-3.76575 -16.9459,-37.65756 l -15.69065,79.08088 q 28.24317,-5.33482 44.24763,-8.15914 1.88288,-1.25525 1.88288,-1.88288 z"
         id="path5"
         style="font-size:313.813px;line-height:0.8;font-family:'Black boys on mopeds';-inkscape-font-specification:'Black boys on mopeds';text-align:center;text-anchor:middle;stroke:#ffffff;stroke-width:120;stroke-linejoin:round;paint-order:stroke markers fill" />
      <path
         d="m 749.74872,646.83452 q -21.96691,9.10057 -40.79569,23.53597 -3.45194,2.5105 -12.2387,2.82432 -2.82432,0 -5.33482,-2.19669 -2.51051,-2.1967 -2.51051,-5.02101 0,-4.07957 8.47295,-9.7282 3.45195,-2.1967 11.9249,-7.84533 0.31381,-1.56906 -10.35583,-37.02993 -16.63209,-0.31382 -54.28965,11.29727 -2.19669,0.62762 -3.45194,8.78676 -0.62763,0.94144 -1.25525,2.82432 0,0.94143 3.76575,2.82431 4.07957,1.88288 4.7072,2.82432 0.62762,0.94144 0.62762,2.82432 0,4.39338 -3.45194,7.53151 -3.45194,2.82432 -7.84533,2.82432 -1.25525,-0.31382 -11.29726,-1.56907 -5.02101,-0.62763 -28.55699,-2.5105 -19.4564,-1.56907 -19.4564,-8.78677 0,-7.53151 7.53151,-8.78676 4.07957,-0.62763 11.29727,0.62763 1.56906,0.62762 24.79122,2.19669 1.88288,-15.69065 6.27626,-36.71612 5.64864,-26.04648 20.39785,-97.90966 -3.13813,-0.62762 -6.59007,-0.62762 -5.96245,0 -17.57353,3.45194 -11.61108,3.45194 -17.57353,3.45194 -2.19669,0 -6.27626,-3.45194 -0.31381,-1.25525 -0.31381,-2.19669 0,-6.59007 8.78676,-8.15914 24.79123,-4.70719 43.93382,-5.96244 l 9.41439,-0.62763 q 7.84533,0.94144 12.55252,18.51497 1.88288,6.59007 7.84532,22.28072 3.76576,9.7282 13.18015,32.95036 l 14.12158,32.32274 q 4.07957,10.04202 17.88735,45.8167 4.07956,-0.62763 13.49395,-5.33482 9.41439,-4.7072 12.86634,-4.7072 3.76575,0 7.21769,2.82432 0.94144,0.94144 1.56907,4.70719 0.31381,5.64864 -4.07957,8.15914 -1.56906,0.62763 -9.41439,3.76576 z m -57.11396,-51.77915 q -4.39338,-8.78676 -13.49396,-31.3813 -1.56907,-3.76575 -16.9459,-37.65756 l -15.69065,79.08088 q 28.24317,-5.33482 44.24763,-8.15914 1.88288,-1.25525 1.88288,-1.88288 z"
         id="path7" />
    </g>
  </g>
</svg>
